<svg width="24" height="24" viewBox="0 0 24 24" fill="none" xmlns="http://www.w3.org/2000/svg">
<g clip-path="url(#clip0_131_5535)">
<path d="M12 12C12.7911 12 13.5645 11.7654 14.2223 11.3259C14.88 10.8864 15.3927 10.2617 15.6955 9.53078C15.9982 8.79987 16.0775 7.99561 15.9231 7.21968C15.7688 6.44376 15.3878 5.73103 14.8284 5.17162C14.269 4.61221 13.5563 4.23124 12.7803 4.0769C12.0044 3.92256 11.2001 4.00177 10.4692 4.30452C9.73833 4.60728 9.11362 5.11997 8.67409 5.77776C8.23457 6.43556 7.99997 7.20892 7.99997 8.00004C7.99997 9.06091 8.4214 10.0783 9.17154 10.8285C9.92169 11.5786 10.9391 12 12 12ZM12 6.00004C12.3955 6.00004 12.7822 6.11734 13.1111 6.3371C13.44 6.55687 13.6964 6.86922 13.8477 7.23468C13.9991 7.60013 14.0387 8.00226 13.9615 8.39022C13.8844 8.77819 13.6939 9.13455 13.4142 9.41426C13.1345 9.69396 12.7781 9.88444 12.3902 9.96161C12.0022 10.0388 11.6001 9.99918 11.2346 9.8478C10.8692 9.69643 10.5568 9.44008 10.337 9.11118C10.1173 8.78229 9.99997 8.39561 9.99997 8.00004C9.99997 7.46961 10.2107 6.9609 10.5858 6.58583C10.9608 6.21076 11.4695 6.00004 12 6.00004ZM16 22.03L24 23.978V13.483C23.9998 12.8389 23.7922 12.212 23.4081 11.6949C23.024 11.1779 22.4836 10.7982 21.867 10.612L19.767 9.91204C19.9205 9.2883 19.9988 8.64841 20 8.00604C20 5.88431 19.1571 3.84948 17.6568 2.34919C16.1565 0.848897 14.1217 0.00604248 12 0.00604248C9.87824 0.00604248 7.84341 0.848897 6.34312 2.34919C4.84283 3.84948 3.99997 5.88431 3.99997 8.00604C4.00293 8.41198 4.03636 8.81712 4.09997 9.21804C3.64584 9.037 3.15426 8.96999 2.66824 9.02289C2.18222 9.07579 1.71657 9.24697 1.31202 9.52148C0.907465 9.79598 0.576342 10.1654 0.347616 10.5975C0.118889 11.0296 -0.000473728 11.5112 -2.92809e-05 12V21.752L7.98297 24.033L16 22.03ZM7.75697 3.76404C8.88422 2.6528 10.4049 2.03201 11.9878 2.03692C13.5707 2.04183 15.0875 2.67204 16.2078 3.79025C17.3282 4.90847 17.9612 6.4241 17.9691 8.00697C17.977 9.58984 17.3591 11.1117 16.25 12.241L12 16.4L7.75697 12.249C6.63184 11.1238 5.99975 9.59777 5.99975 8.00654C5.99975 6.41531 6.63184 4.88925 7.75697 3.76404ZM1.99997 12C1.99871 11.8351 2.03888 11.6725 2.11681 11.5271C2.19473 11.3818 2.30792 11.2583 2.44597 11.168C2.59038 11.0733 2.75675 11.0172 2.92908 11.0053C3.1014 10.9934 3.27389 11.026 3.42997 11.1L4.86397 11.618C5.24763 12.3778 5.74955 13.0718 6.35097 13.674L12 19.2L17.657 13.667C18.2132 13.1116 18.6849 12.4775 19.057 11.785L21.274 12.526C21.4828 12.5858 21.6665 12.7119 21.7973 12.8852C21.9281 13.0586 21.9989 13.2699 21.999 13.487V21.436L16 19.97L8.01997 21.97L1.99997 20.246V12Z" fill="#374957"/>
</g>
<defs>
<clipPath id="clip0_131_5535">
<rect width="24" height="24" fill="white"/>
</clipPath>
</defs>
</svg>
